<svg width="45" height="45" viewBox="0 0 45 45" fill="none" xmlns="http://www.w3.org/2000/svg">
<path d="M11.25 12.6562H5.625C4.87908 12.6562 4.16371 12.9526 3.63626 13.48C3.10882 14.0075 2.8125 14.7228 2.8125 15.4688V32.3438H5.625V25.3125H11.25V32.3438H14.0625V15.4688C14.0625 14.7228 13.7662 14.0075 13.2387 13.48C12.7113 12.9526 11.9959 12.6562 11.25 12.6562ZM5.625 22.5V15.4688H11.25V22.5H5.625Z" fill="#131516"/>
<path d="M30.9375 15.4688H35.1562V29.5312H30.9375V32.3438H42.1875V29.5312H37.9688V15.4688H42.1875V12.6562H30.9375V15.4688Z" fill="#131516"/>
<path d="M19.6875 32.3438H16.875V12.6562H25.3125C26.0584 12.6562 26.7738 12.9526 27.3012 13.48C27.8287 14.0075 28.125 14.7228 28.125 15.4688V22.5C28.125 23.2459 27.8287 23.9613 27.3012 24.4887C26.7738 25.0162 26.0584 25.3125 25.3125 25.3125H19.6875V32.3438ZM19.6875 22.5H25.3125V15.4688H19.6875V22.5Z" fill="#131516"/>
</svg>
