<svg width="45" height="45" viewBox="0 0 45 45" fill="none" xmlns="http://www.w3.org/2000/svg">
<g clip-path="url(#clip0_87_241)">
<path d="M23.4562 24.7765C23.5425 23.2765 24.2775 21.9527 25.3875 21.0152C26.5521 20.0479 28.021 19.5232 29.535 19.534C31.1287 19.534 32.5931 20.0965 33.6806 21.0152C34.7906 21.9527 35.5237 23.2765 35.6081 24.7746C35.6925 26.3177 35.0737 27.7483 33.9862 28.8115C32.7884 29.9554 31.1912 30.5865 29.535 30.5702C27.8775 30.5867 26.2791 29.9557 25.08 28.8115C23.9925 27.7483 23.3718 26.3177 23.4562 24.7765ZM13.7812 27.8083C13.7925 28.3971 13.98 29.5371 14.2612 30.4296C14.8684 32.3497 15.8878 34.114 17.2481 35.599C18.7069 37.2029 20.4875 38.4814 22.4737 39.3508C24.6354 40.3037 26.9739 40.7893 29.3362 40.7758C31.6981 40.7805 34.0345 40.2873 36.1931 39.3283C38.1778 38.4506 39.9567 37.1668 41.4149 35.5596C42.773 34.0697 43.7915 32.3028 44.3999 30.3808C44.985 28.5188 45.1452 26.5492 44.8687 24.6171C44.6054 22.766 43.9564 20.9908 42.9637 19.4065C42.044 17.9326 40.868 16.6353 39.4912 15.5758H39.4949L25.4362 4.78145L25.3987 4.75332C24.4762 4.04457 22.9256 4.04832 21.9112 4.75707C20.8856 5.47332 20.7693 6.6602 21.6806 7.4102L21.6787 7.41208L27.54 12.1802L9.67121 12.199H9.64684C8.16934 12.2008 6.74997 13.1702 6.46872 14.3965C6.17997 15.6433 7.18121 16.6783 8.71871 16.684V16.6877L17.775 16.669L1.61247 29.0758L1.54872 29.1227C0.0243434 30.289 -0.466906 32.2315 0.493093 33.4596C1.46809 34.7102 3.53997 34.7121 5.08122 33.4671L13.9012 26.2502C13.9012 26.2502 13.77 27.2252 13.7812 27.8083ZM36.45 31.0727C34.6312 32.9252 32.0887 33.9752 29.3343 33.979C26.5781 33.9865 24.0337 32.944 22.215 31.0952C21.3562 30.233 20.6936 29.1957 20.2725 28.054C19.8865 26.9798 19.734 25.8356 19.8252 24.6979C19.9164 23.5601 20.2491 22.4549 20.8012 21.4558C21.3504 20.4683 22.0844 19.5956 22.9631 18.8852C24.7293 17.4452 26.9775 16.6671 29.3306 16.6633C31.6856 16.6596 33.9337 17.4321 35.7018 18.8665C36.6018 19.5996 37.3331 20.4677 37.8618 21.4296C38.4091 22.4152 38.7426 23.5052 38.8406 24.6283C38.9399 25.7793 38.787 26.9382 38.3924 28.024C37.9712 29.1674 37.3076 30.2071 36.45 31.0727Z" fill="#131516"/>
<path d="M23.4562 24.7765C23.5425 23.2765 24.2775 21.9527 25.3875 21.0152C26.5521 20.0479 28.021 19.5232 29.535 19.534C31.1287 19.534 32.5931 20.0965 33.6806 21.0152C34.7906 21.9527 35.5237 23.2765 35.6081 24.7746C35.6925 26.3177 35.0737 27.7483 33.9862 28.8115C32.7884 29.9554 31.1912 30.5865 29.535 30.5702C27.8775 30.5867 26.2791 29.9557 25.08 28.8115C23.9925 27.7483 23.3718 26.3177 23.4562 24.7765Z" fill="#FF5C00"/>
</g>
<defs>
<clipPath id="clip0_87_241">
<rect width="45" height="45" fill="white"/>
</clipPath>
</defs>
</svg>
