<svg width="45" height="45" viewBox="0 0 45 45" fill="none" xmlns="http://www.w3.org/2000/svg">
<path d="M24.5 16.5L35 17L36 28L22.5 28.5L24.5 16.5Z" fill="#FF5C00"/>
<path d="M9.5 2.5H21.5V14.333L9.5 14V2.5Z" fill="#FF5C00"/>
<path d="M29.7226 16.8394H21.1201V0H29.7226C34.3651 0 38.1413 3.77625 38.1413 8.41875C38.1413 13.0612 34.3651 16.8394 29.7226 16.8394ZM23.8782 14.0813H29.7226C32.8444 14.0813 35.3832 11.5406 35.3832 8.42063C35.3832 5.30063 32.8426 2.76 29.7226 2.76H23.8782V14.0813ZM23.8782 16.8394H15.2776C10.6351 16.8394 6.85881 13.0631 6.85881 8.42063C6.85881 3.77813 10.6351 0 15.2776 0H23.8801V16.8394H23.8782ZM15.2776 2.75812C12.1557 2.75812 9.61694 5.29875 9.61694 8.41875C9.61694 11.5387 12.1557 14.0813 15.2776 14.0813H21.1219V2.75812H15.2776ZM23.8782 30.9187H15.2776C10.6351 30.9187 6.85881 27.1425 6.85881 22.5C6.85881 17.8575 10.6351 14.0813 15.2776 14.0813H23.8801V22.5V30.9187H23.8782ZM15.2776 16.8394C12.1557 16.8394 9.61694 19.38 9.61694 22.5C9.61694 25.62 12.1576 28.1606 15.2776 28.1606H21.1219V16.8394H15.2776ZM15.3226 45C10.6557 45 6.85693 41.2237 6.85693 36.5812C6.85693 31.9387 10.6332 28.1625 15.2757 28.1625H23.8782V36.4894C23.8782 41.1825 20.0401 45 15.3226 45ZM15.2776 30.9187C13.7769 30.9207 12.3382 31.5178 11.2771 32.5789C10.2159 33.64 9.61892 35.0787 9.61694 36.5794C9.61694 39.7013 12.1763 42.24 15.3244 42.24C18.5213 42.24 21.1238 39.66 21.1238 36.4875V30.9187H15.2776ZM29.7226 30.9187H29.5388C24.8963 30.9187 21.1201 27.1425 21.1201 22.5C21.1201 17.8575 24.8963 14.0813 29.5388 14.0813H29.7226C34.3651 14.0813 38.1413 17.8575 38.1413 22.5C38.1413 27.1425 34.3651 30.9187 29.7226 30.9187ZM29.5407 16.8394C26.4188 16.8394 23.8801 19.38 23.8801 22.5C23.8801 25.62 26.4207 28.1606 29.5407 28.1606H29.7244C32.8463 28.1606 35.3851 25.62 35.3851 22.5C35.3851 19.38 32.8426 16.8394 29.7226 16.8394H29.5407Z" fill="#131516"/>
</svg>
