<svg width="45" height="45" viewBox="0 0 45 45" fill="none" xmlns="http://www.w3.org/2000/svg">
<rect x="11" y="18" width="30" height="23" fill="#FF5C00"/>
<path d="M2.8125 2.8125V42.1875H42.1875V2.8125H2.8125ZM23.9062 33.3984C23.9062 37.2313 21.6422 39.0999 18.3647 39.0999C15.4046 39.0999 13.6863 37.5671 12.8145 35.717L15.8273 33.8933C16.4083 34.9242 16.8495 35.7961 18.1178 35.7961C19.1725 35.7961 20.0391 35.3206 20.0391 33.4705V21.0938H23.9062V33.3984ZM32.6382 39.012C29.2025 39.012 26.9824 37.4616 25.8987 35.3206L28.916 33.5742C29.707 34.8697 30.7397 35.7328 32.5635 35.7328C34.0963 35.7328 34.9866 35.0543 34.9866 33.997C34.9866 32.7287 34.0699 32.2796 32.378 31.536L31.4534 31.1388C28.7833 30.0032 27.0132 28.5759 27.0132 25.5621C27.0132 22.7874 29.127 20.7606 32.4308 20.7606C34.7836 20.7606 36.4737 21.4919 37.691 23.6329L34.8047 25.4883C34.1701 24.3519 33.4863 23.9062 32.4264 23.9062C31.3427 23.9062 30.6554 24.5936 30.6554 25.4883C30.6554 26.5983 31.3427 27.0475 32.9282 27.7348L33.8528 28.1312C36.9984 29.4794 38.7694 30.8558 38.7694 33.946C38.7703 37.2771 36.1538 39.012 32.6382 39.012Z" fill="#131516"/>
</svg>
