<svg width="45" height="45" viewBox="0 0 45 45" fill="none" xmlns="http://www.w3.org/2000/svg">
<g clip-path="url(#clip0_87_232)">
<rect x="20" y="17" width="5" height="21" fill="#FF5C00"/>
<path d="M32.2368 17.9156C29.8668 7.45313 24.2643 4.01438 23.6624 2.7C23.1374 1.96125 22.6686 0.91125 22.2843 0C22.2168 0.928125 22.1811 1.28437 21.3036 2.22C19.948 3.28125 12.9824 9.12375 12.4161 21.0075C11.8874 32.0925 20.4224 38.6981 21.5811 39.54L21.7124 39.6338C21.9537 41.4183 22.16 43.2074 22.3311 45H23.233C23.4466 43.0653 23.7658 41.1436 24.1893 39.2438C24.9711 38.6888 25.3218 38.3756 25.783 37.9444C27.9673 35.9237 29.7032 33.4671 30.8785 30.7334C32.0539 27.9997 32.6424 25.0498 32.6061 22.0744C32.6249 20.5481 32.413 18.9581 32.2368 17.9156ZM22.2318 33.2812C22.2318 33.2812 22.2318 17.7356 22.7474 17.7375C23.1468 17.7375 23.6661 37.7906 23.6661 37.7906C22.9518 37.7063 22.2318 34.4906 22.2318 33.2812Z" fill="#131516"/>
</g>
<defs>
<clipPath id="clip0_87_232">
<rect width="45" height="45" fill="white"/>
</clipPath>
</defs>
</svg>
