<svg width="45" height="45" viewBox="0 0 45 45" fill="none" xmlns="http://www.w3.org/2000/svg">
<g clip-path="url(#clip0_87_217)">
<path d="M0.712572 4.03831e-05C0.637046 0.0012348 0.562761 0.0194407 0.495241 0.0533041C0.427722 0.0871675 0.368705 0.135817 0.322581 0.195635C0.276456 0.255452 0.244411 0.324899 0.228827 0.398809C0.213244 0.47272 0.214524 0.549193 0.232572 0.62254L5.65882 22.59C5.66314 22.6155 5.66941 22.6406 5.67757 22.665L11.0963 44.6175C11.1175 44.7034 11.161 44.7822 11.2224 44.8459C11.2837 44.9096 11.3608 44.9559 11.4459 44.9803C11.5309 45.0046 11.6209 45.0061 11.7067 44.9846C11.7924 44.963 11.871 44.9192 11.9344 44.8575L44.6288 13.4063C44.6921 13.345 44.7382 13.2682 44.7624 13.1836C44.7866 13.0989 44.7882 13.0094 44.7669 12.9239C44.7457 12.8385 44.7023 12.7601 44.6412 12.6967C44.5801 12.6332 44.5034 12.587 44.4188 12.5625L33.5738 9.43691C33.5034 9.39675 33.4242 9.37423 33.3432 9.37129L11.9626 3.21566C11.8815 3.16557 11.7879 3.13956 11.6926 3.14066L0.855072 0.0187904C0.808716 0.00574445 0.760725 -0.000570126 0.712572 4.03831e-05ZM1.41382 1.22629L10.7063 3.90004L3.73132 10.62L1.41382 1.22629ZM12.3938 4.38754L21.5138 7.01254L14.6701 13.6032L12.3938 4.38754ZM11.4151 4.61254L13.6969 13.8488L4.55257 11.2238L11.4151 4.61254ZM23.1901 7.49629L32.3363 10.1288L25.4701 16.7475L23.1901 7.49629ZM22.2151 7.74004L24.4801 16.9275L15.3807 14.3175L22.2151 7.74004ZM34.0276 10.6163L43.3032 13.2863L36.3376 19.9875L34.0276 10.6163ZM33.0451 10.8413L35.3232 20.0775L26.1807 17.4563L33.0451 10.8413ZM4.11007 12.1463L13.4176 14.8163L6.43132 21.54L4.11007 12.1463ZM15.0882 15.2813L24.2326 17.9063L17.3701 24.5194L15.0882 15.2813ZM14.1169 15.5382L15.2757 20.2416L16.4345 24.945L7.12882 22.26L14.1169 15.5382ZM25.8807 18.4163L35.1901 21.0882L28.1963 27.8119L25.8807 18.4163ZM24.9057 18.6544L27.2213 28.0519L17.9251 25.3707L24.9057 18.6544ZM6.84945 23.2257L15.9863 25.8619L9.13132 32.4675L6.84945 23.2257ZM17.8257 26.3888L26.9438 29.0194L20.1038 35.6007L17.8257 26.3888ZM16.8132 26.4638L19.0895 35.7019L9.94882 33.0769L16.8132 26.4638ZM9.5082 34.0013L18.9526 36.705L11.8613 43.5263L9.5082 34.0013Z" fill="#131516"/>
</g>
<defs>
<clipPath id="clip0_87_217">
<rect width="45" height="45" fill="white"/>
</clipPath>
</defs>
</svg>
